<svg xmlns="http://www.w3.org/2000/svg" xmlns:xlink="http://www.w3.org/1999/xlink" width="100" zoomAndPan="magnify" viewBox="0 0 30 30.000001" height="100" preserveAspectRatio="xMidYMid meet" version="1.0"><defs><clipPath id="id1"><path d="M 1.714844 1.246094 L 15 1.246094 L 15 28.101562 L 1.714844 28.101562 Z M 1.714844 1.246094 " clip-rule="nonzero"/></clipPath><clipPath id="id2"><path d="M 8 1.246094 L 28.570312 1.246094 L 28.570312 28.101562 L 8 28.101562 Z M 8 1.246094 " clip-rule="nonzero"/></clipPath></defs><g clip-path="url(#id1)"><path fill="rgb(2.749634%, 3.919983%, 5.488586%)" d="M 10.082031 19.746094 C 8.730469 18.390625 7.984375 16.589844 7.984375 14.675781 C 7.984375 12.761719 8.730469 10.960938 10.082031 9.605469 C 11.351562 8.332031 13.019531 7.597656 14.804688 7.515625 L 14.804688 1.25 C 14.570312 1.253906 14.339844 1.265625 14.109375 1.28125 L 13.542969 3.542969 C 13.253906 4.703125 11.800781 5.09375 10.96875 4.230469 L 9.351562 2.558594 C 8.726562 2.859375 8.125 3.203125 7.558594 3.59375 L 8.199219 5.832031 C 8.527344 6.984375 7.464844 8.050781 6.3125 7.722656 L 4.078125 7.082031 C 3.6875 7.648438 3.339844 8.25 3.039062 8.875 L 4.714844 10.496094 C 5.574219 11.328125 5.183594 12.78125 4.023438 13.074219 L 1.769531 13.640625 C 1.742188 13.980469 1.730469 14.328125 1.730469 14.675781 C 1.730469 15.023438 1.742188 15.371094 1.769531 15.710938 L 4.023438 16.277344 C 5.183594 16.566406 5.574219 18.023438 4.714844 18.855469 L 3.039062 20.476562 C 3.339844 21.101562 3.6875 21.703125 4.078125 22.269531 L 6.3125 21.628906 C 7.464844 21.300781 8.527344 22.363281 8.199219 23.515625 L 7.558594 25.757812 C 8.125 26.144531 8.726562 26.492188 9.351562 26.792969 L 10.96875 25.117188 C 11.800781 24.257812 13.253906 24.648438 13.542969 25.808594 L 14.109375 28.066406 C 14.339844 28.085938 14.570312 28.097656 14.804688 28.101562 L 14.804688 21.835938 C 13.019531 21.753906 11.351562 21.015625 10.082031 19.746094 " fill-opacity="1" fill-rule="nonzero"/></g><g clip-path="url(#id2)"><path fill="rgb(2.749634%, 3.919983%, 5.488586%)" d="M 8.96875 14.675781 C 8.96875 11.261719 11.734375 8.492188 15.144531 8.492188 C 18.554688 8.492188 21.316406 11.261719 21.316406 14.675781 C 21.316406 18.089844 18.554688 20.855469 15.144531 20.855469 C 11.734375 20.855469 8.96875 18.089844 8.96875 14.675781 Z M 26.261719 16.277344 L 28.519531 15.710938 C 28.542969 15.371094 28.558594 15.023438 28.558594 14.675781 C 28.558594 14.328125 28.542969 13.980469 28.519531 13.640625 L 26.261719 13.074219 C 25.101562 12.78125 24.714844 11.328125 25.574219 10.496094 L 27.246094 8.875 C 26.945312 8.25 26.597656 7.648438 26.210938 7.082031 L 23.972656 7.722656 C 22.824219 8.050781 21.761719 6.984375 22.089844 5.832031 L 22.726562 3.59375 C 22.160156 3.207031 21.5625 2.859375 20.9375 2.558594 L 19.316406 4.230469 C 18.488281 5.09375 17.035156 4.703125 16.742188 3.542969 L 16.179688 1.28125 C 15.949219 1.265625 15.714844 1.253906 15.484375 1.25 L 15.484375 7.796875 C 15.371094 7.792969 15.257812 7.789062 15.144531 7.789062 C 11.34375 7.789062 8.265625 10.871094 8.265625 14.675781 C 8.265625 18.476562 11.34375 21.5625 15.144531 21.5625 C 15.257812 21.5625 15.371094 21.558594 15.484375 21.554688 L 15.484375 28.101562 C 15.714844 28.097656 15.949219 28.085938 16.179688 28.066406 L 16.742188 25.808594 C 17.035156 24.648438 18.488281 24.257812 19.316406 25.117188 L 20.9375 26.792969 C 21.5625 26.492188 22.160156 26.144531 22.726562 25.757812 L 22.089844 23.515625 C 21.761719 22.363281 22.824219 21.300781 23.972656 21.628906 L 26.210938 22.269531 C 26.597656 21.703125 26.945312 21.101562 27.246094 20.476562 L 25.574219 18.855469 C 24.714844 18.023438 25.101562 16.566406 26.261719 16.277344 " fill-opacity="1" fill-rule="nonzero"/></g></svg>