<svg xmlns="http://www.w3.org/2000/svg" xmlns:xlink="http://www.w3.org/1999/xlink" width="24" zoomAndPan="magnify" viewBox="0 0 30 30.000001" height="24" preserveAspectRatio="xMidYMid meet" version="1.0"><defs><clipPath id="id1"><path d="M 9 3 L 28.335938 3 L 28.335938 25.402344 L 9 25.402344 Z M 9 3 " clip-rule="nonzero"/></clipPath><clipPath id="id2"><path d="M 1.480469 12 L 10 12 L 10 25.402344 L 1.480469 25.402344 Z M 1.480469 12 " clip-rule="nonzero"/></clipPath></defs><path fill="rgb(100%, 100%, 100%)" d="M 25.636719 21.730469 L 22.238281 21.730469 C 21.925781 21.730469 21.671875 21.472656 21.671875 21.15625 C 21.671875 20.839844 21.925781 20.582031 22.238281 20.582031 L 25.636719 20.582031 C 25.953125 20.582031 26.203125 20.839844 26.203125 21.15625 C 26.203125 21.472656 25.953125 21.730469 25.636719 21.730469 Z M 25.636719 21.730469 " fill-opacity="1" fill-rule="nonzero"/><path fill="rgb(100%, 100%, 100%)" d="M 26.769531 18.289062 L 22.238281 18.289062 C 21.925781 18.289062 21.671875 18.03125 21.671875 17.71875 C 21.671875 17.402344 21.925781 17.144531 22.238281 17.144531 L 26.769531 17.144531 C 27.085938 17.144531 27.335938 17.402344 27.335938 17.71875 C 27.335938 18.03125 27.085938 18.289062 26.769531 18.289062 Z M 26.769531 18.289062 " fill-opacity="1" fill-rule="nonzero"/><path fill="rgb(100%, 100%, 100%)" d="M 26.769531 14.851562 L 22.238281 14.851562 C 21.925781 14.851562 21.671875 14.59375 21.671875 14.277344 C 21.671875 13.960938 21.925781 13.703125 22.238281 13.703125 L 26.769531 13.703125 C 27.085938 13.703125 27.335938 13.960938 27.335938 14.277344 C 27.335938 14.59375 27.085938 14.851562 26.769531 14.851562 Z M 26.769531 14.851562 " fill-opacity="1" fill-rule="nonzero"/><g clip-path="url(#id1)"><path fill="rgb(100%, 100%, 100%)" d="M 22.617188 25.167969 L 13.339844 25.167969 C 12.707031 25.167969 12.15625 24.953125 11.734375 24.542969 C 11.390625 24.207031 10.9375 24.023438 10.460938 24.023438 L 9.773438 24.023438 C 9.464844 24.023438 9.207031 23.765625 9.207031 23.449219 C 9.207031 23.132812 9.464844 22.875 9.773438 22.875 L 10.457031 22.875 C 11.230469 22.875 11.964844 23.175781 12.519531 23.71875 C 12.730469 23.921875 12.996094 24.023438 13.335938 24.023438 L 22.617188 24.023438 C 23.75 24.023438 24.367188 23.519531 24.683594 23.09375 C 25.140625 22.484375 25.21875 21.761719 25.089844 21.304688 C 25.007812 21.011719 25.167969 20.707031 25.457031 20.613281 C 25.96875 20.4375 26.222656 20.023438 26.339844 19.710938 C 26.574219 19.078125 26.488281 18.371094 26.277344 18 C 26.128906 17.738281 26.207031 17.40625 26.453125 17.238281 C 26.996094 16.875 27.136719 16.203125 27.09375 15.738281 C 27.046875 15.285156 26.839844 14.929688 26.550781 14.804688 C 26.300781 14.699219 26.160156 14.429688 26.210938 14.160156 C 26.265625 13.894531 26.5 13.703125 26.765625 13.703125 C 27.023438 13.703125 27.175781 13.703125 27.175781 12.839844 C 27.175781 11.730469 26.761719 11.410156 25.328125 11.410156 L 19.199219 11.410156 C 19.019531 11.410156 18.855469 11.328125 18.75 11.183594 C 18.640625 11.042969 18.605469 10.859375 18.652344 10.683594 C 19.683594 6.914062 18.890625 5.066406 17.898438 4.632812 C 17.410156 4.417969 16.886719 4.558594 16.570312 4.964844 L 16.570312 7.519531 C 16.570312 7.914062 16.441406 8.28125 16.339844 8.578125 C 15.710938 10.390625 14.496094 11.996094 12.617188 13.496094 C 12.546875 13.550781 12.492188 13.609375 12.433594 13.675781 C 11.839844 14.402344 10.855469 14.851562 9.863281 14.851562 C 9.554688 14.851562 9.296875 14.589844 9.296875 14.277344 C 9.296875 13.960938 9.554688 13.703125 9.863281 13.703125 C 10.515625 13.703125 11.183594 13.40625 11.5625 12.941406 C 11.667969 12.8125 11.789062 12.695312 11.917969 12.589844 C 13.617188 11.234375 14.714844 9.796875 15.269531 8.199219 C 15.351562 7.960938 15.433594 7.714844 15.433594 7.511719 L 15.433594 4.785156 C 15.433594 4.679688 15.460938 4.578125 15.515625 4.488281 C 16.109375 3.503906 17.296875 3.121094 18.347656 3.578125 C 19.738281 4.191406 20.839844 6.265625 19.925781 10.261719 L 25.332031 10.261719 C 26.222656 10.261719 28.308594 10.261719 28.308594 12.839844 C 28.308594 13.175781 28.308594 13.980469 27.828125 14.460938 C 28.042969 14.785156 28.179688 15.179688 28.222656 15.628906 C 28.304688 16.492188 28.015625 17.320312 27.457031 17.882812 C 27.679688 18.566406 27.664062 19.40625 27.394531 20.117188 C 27.167969 20.71875 26.773438 21.195312 26.265625 21.492188 C 26.328125 22.265625 26.082031 23.121094 25.582031 23.78125 C 24.921875 24.675781 23.867188 25.167969 22.617188 25.167969 Z M 22.617188 25.167969 " fill-opacity="1" fill-rule="nonzero"/></g><g clip-path="url(#id2)"><path fill="rgb(100%, 100%, 100%)" d="M 9.207031 25.167969 L 2.410156 25.167969 C 2.097656 25.167969 1.84375 24.910156 1.84375 24.59375 L 1.84375 13.132812 C 1.84375 12.816406 2.097656 12.558594 2.410156 12.558594 L 9.207031 12.558594 C 9.519531 12.558594 9.773438 12.816406 9.773438 13.132812 L 9.773438 24.59375 C 9.773438 24.910156 9.523438 25.167969 9.207031 25.167969 Z M 2.976562 24.023438 L 8.640625 24.023438 L 8.640625 13.703125 L 2.976562 13.703125 Z M 2.976562 24.023438 " fill-opacity="1" fill-rule="nonzero"/></g></svg>