<svg xmlns="http://www.w3.org/2000/svg" xmlns:xlink="http://www.w3.org/1999/xlink" width="24" zoomAndPan="magnify" viewBox="0 0 30 30.000001" height="24" preserveAspectRatio="xMidYMid meet" version="1.0"><defs><clipPath id="id1"><path d="M 2.660156 7.539062 L 27.339844 7.539062 L 27.339844 21.328125 L 2.660156 21.328125 Z M 2.660156 7.539062 " clip-rule="nonzero"/></clipPath></defs><g clip-path="url(#id1)"><path fill="rgb(100%, 100%, 100%)" d="M 14.960938 7.597656 C 10.253906 7.597656 5.921875 9.71875 3.074219 13.414062 C 2.632812 13.992188 2.632812 14.796875 3.074219 15.371094 C 5.921875 19.070312 10.253906 21.191406 14.960938 21.191406 C 19.667969 21.191406 23.996094 19.070312 26.84375 15.371094 C 27.289062 14.796875 27.289062 13.992188 26.84375 13.417969 C 23.996094 9.71875 19.667969 7.597656 14.960938 7.597656 Z M 25.546875 14.394531 C 23.011719 17.691406 19.152344 19.582031 14.960938 19.582031 C 10.765625 19.582031 6.90625 17.691406 4.371094 14.390625 C 6.90625 11.097656 10.765625 9.207031 14.960938 9.207031 C 19.152344 9.207031 23.011719 11.097656 25.546875 14.390625 C 25.546875 14.390625 25.546875 14.394531 25.546875 14.394531 Z M 25.546875 14.394531 " fill-opacity="1" fill-rule="nonzero"/></g><path fill="rgb(100%, 100%, 100%)" d="M 14.960938 9.679688 C 12.332031 9.679688 10.191406 11.796875 10.191406 14.394531 C 10.191406 16.992188 12.332031 19.109375 14.960938 19.109375 C 17.589844 19.109375 19.726562 16.992188 19.726562 14.394531 C 19.726562 11.796875 17.589844 9.679688 14.960938 9.679688 Z M 14.960938 17.496094 C 13.230469 17.496094 11.820312 16.105469 11.820312 14.394531 C 11.820312 12.683594 13.230469 11.289062 14.960938 11.289062 C 16.691406 11.289062 18.097656 12.683594 18.097656 14.394531 C 18.097656 16.105469 16.691406 17.496094 14.960938 17.496094 Z M 14.960938 17.496094 " fill-opacity="1" fill-rule="nonzero"/></svg>