<svg xmlns="http://www.w3.org/2000/svg" xmlns:xlink="http://www.w3.org/1999/xlink" width="24" zoomAndPan="magnify" viewBox="0 0 30 30.000001" height="24" preserveAspectRatio="xMidYMid meet" version="1.0"><defs><clipPath id="id1"><path d="M 1.660156 1.75 L 21 1.75 L 21 24 L 1.660156 24 Z M 1.660156 1.75 " clip-rule="nonzero"/></clipPath><clipPath id="id2"><path d="M 20 1.75 L 28.515625 1.75 L 28.515625 15 L 20 15 Z M 20 1.75 " clip-rule="nonzero"/></clipPath></defs><path fill="rgb(100%, 100%, 100%)" d="M 4.359375 5.421875 L 7.757812 5.421875 C 8.066406 5.421875 8.324219 5.679688 8.324219 5.996094 C 8.324219 6.3125 8.066406 6.570312 7.757812 6.570312 L 4.359375 6.570312 C 4.042969 6.570312 3.792969 6.3125 3.792969 5.996094 C 3.792969 5.679688 4.042969 5.421875 4.359375 5.421875 Z M 4.359375 5.421875 " fill-opacity="1" fill-rule="nonzero"/><path fill="rgb(100%, 100%, 100%)" d="M 3.222656 8.863281 L 7.757812 8.863281 C 8.066406 8.863281 8.324219 9.121094 8.324219 9.4375 C 8.324219 9.75 8.066406 10.007812 7.757812 10.007812 L 3.222656 10.007812 C 2.910156 10.007812 2.65625 9.75 2.65625 9.4375 C 2.65625 9.121094 2.910156 8.863281 3.222656 8.863281 Z M 3.222656 8.863281 " fill-opacity="1" fill-rule="nonzero"/><path fill="rgb(100%, 100%, 100%)" d="M 3.222656 12.300781 L 7.757812 12.300781 C 8.066406 12.300781 8.324219 12.558594 8.324219 12.875 C 8.324219 13.191406 8.066406 13.449219 7.757812 13.449219 L 3.222656 13.449219 C 2.910156 13.449219 2.65625 13.191406 2.65625 12.875 C 2.65625 12.558594 2.910156 12.300781 3.222656 12.300781 Z M 3.222656 12.300781 " fill-opacity="1" fill-rule="nonzero"/><g clip-path="url(#id1)"><path fill="rgb(100%, 100%, 100%)" d="M 7.378906 1.984375 L 16.65625 1.984375 C 17.289062 1.984375 17.839844 2.199219 18.261719 2.609375 C 18.605469 2.945312 19.054688 3.128906 19.535156 3.128906 L 20.222656 3.128906 C 20.53125 3.128906 20.789062 3.386719 20.789062 3.703125 C 20.789062 4.019531 20.53125 4.277344 20.222656 4.277344 L 19.535156 4.277344 C 18.761719 4.277344 18.03125 3.976562 17.476562 3.433594 C 17.265625 3.230469 17 3.128906 16.65625 3.128906 L 7.378906 3.128906 C 6.246094 3.128906 5.625 3.632812 5.3125 4.058594 C 4.855469 4.667969 4.777344 5.390625 4.902344 5.847656 C 4.984375 6.140625 4.824219 6.445312 4.539062 6.542969 C 4.027344 6.714844 3.773438 7.128906 3.65625 7.441406 C 3.417969 8.074219 3.507812 8.78125 3.71875 9.152344 C 3.867188 9.414062 3.789062 9.746094 3.542969 9.914062 C 3 10.28125 2.855469 10.953125 2.902344 11.414062 C 2.945312 11.871094 3.15625 12.222656 3.445312 12.347656 C 3.695312 12.453125 3.835938 12.722656 3.78125 12.992188 C 3.730469 13.257812 3.496094 13.449219 3.226562 13.449219 C 2.972656 13.449219 2.820312 13.449219 2.820312 14.3125 C 2.820312 15.421875 3.234375 15.742188 4.664062 15.742188 L 10.796875 15.742188 C 10.972656 15.742188 11.140625 15.824219 11.246094 15.96875 C 11.355469 16.109375 11.386719 16.292969 11.34375 16.46875 C 10.308594 20.238281 11.105469 22.085938 12.097656 22.519531 C 12.585938 22.734375 13.109375 22.59375 13.425781 22.1875 L 13.425781 19.632812 C 13.425781 19.238281 13.550781 18.871094 13.65625 18.574219 C 14.28125 16.761719 15.5 15.15625 17.375 13.65625 C 17.449219 13.601562 17.503906 13.542969 17.558594 13.476562 C 18.15625 12.75 19.140625 12.304688 20.132812 12.304688 C 20.441406 12.304688 20.699219 12.5625 20.699219 12.875 C 20.699219 13.191406 20.441406 13.449219 20.132812 13.449219 C 19.480469 13.449219 18.8125 13.75 18.433594 14.210938 C 18.328125 14.339844 18.207031 14.457031 18.078125 14.5625 C 16.375 15.917969 15.28125 17.355469 14.726562 18.957031 C 14.644531 19.191406 14.5625 19.4375 14.5625 19.640625 L 14.5625 22.367188 C 14.5625 22.472656 14.53125 22.574219 14.480469 22.664062 C 13.886719 23.648438 12.699219 24.03125 11.648438 23.574219 C 10.257812 22.964844 9.15625 20.886719 10.070312 16.890625 L 4.664062 16.890625 C 3.773438 16.890625 1.6875 16.890625 1.6875 14.3125 C 1.6875 13.976562 1.6875 13.175781 2.167969 12.691406 C 1.953125 12.371094 1.816406 11.972656 1.773438 11.527344 C 1.691406 10.660156 1.980469 9.832031 2.539062 9.269531 C 2.316406 8.585938 2.332031 7.746094 2.597656 7.035156 C 2.828125 6.433594 3.21875 5.957031 3.730469 5.660156 C 3.664062 4.886719 3.914062 4.03125 4.410156 3.371094 C 5.074219 2.476562 6.128906 1.984375 7.378906 1.984375 Z M 7.378906 1.984375 " fill-opacity="1" fill-rule="nonzero"/></g><g clip-path="url(#id2)"><path fill="rgb(100%, 100%, 100%)" d="M 20.789062 1.984375 L 27.585938 1.984375 C 27.898438 1.984375 28.152344 2.242188 28.152344 2.558594 L 28.152344 14.019531 C 28.152344 14.335938 27.898438 14.59375 27.585938 14.59375 L 20.789062 14.59375 C 20.476562 14.59375 20.222656 14.335938 20.222656 14.019531 L 20.222656 2.558594 C 20.222656 2.242188 20.472656 1.984375 20.789062 1.984375 Z M 27.019531 3.128906 L 21.355469 3.128906 L 21.355469 13.449219 L 27.019531 13.449219 Z M 27.019531 3.128906 " fill-opacity="1" fill-rule="nonzero"/></g></svg>